<svg id="Layer_1" data-name="Layer 1" xmlns="http://www.w3.org/2000/svg" viewBox="0 0 594.95996 407.52095"><title>Montreal Canadiens</title><path d="M529.2,201.001l42.6-44.76L547.56,44.761,440.04,12.721l-9.72,9c-36-10.68-100.8-21.84-144-21.72C126.24.241.48,89.281,0,202.681c0,96.96,83.64,204.84,287.76,204.84,161.76,0,307.2-107.76,307.2-107.76Z" fill="#fff"/><path d="M514.92,199.681,559.68,152.761l-21.6-99.24-95.16-28.32-9.72,9.12c-32.16-10.56-100.8-23.28-146.76-23.28-156.24.36-274.92,86.04-275.4,191.64-.47995,110.88,107.04,193.68,276.72,193.68,118.8,0,240.47995-63.36,291.84-99.48Z" fill="#192168"/><path d="M226.68005,135.121v137.04c-22.56,0-94.32-26.4-94.32-68.04C132.36,152.761,205.8,138.481,226.68005,135.121Zm92.76,85.68v53.88a323.97633,323.97633,0,0,1-54,1.08v-54.96Zm-54-35.4v-53.4a351.77582,351.77582,0,0,1,54,1.68v51.72Zm232.8,24.6s-67.32,46.08-141.72,59.88V139.321c80.76,10.2,128.52,62.88,128.52,62.88l53.76-55.56-17.28-77.88-73.44-21.48-9.36,10.08c-29.76-11.64-91.32-26.76-159.48-26.76-136.44,0-248.04,77.4-248.16,172.8-.24,93,94.44,173.4,247.2,173.4,141,0,242.88-67.2,274.8-85.2Z" fill="#fff"/><path d="M279.36,237.36094h25.92v21.96H279.36Zm.6-67.56h25.2v-21l-25.2-.96Zm183.24,38.28a205.56292,205.56292,0,0,0-86.76-45.36v82.32C404.52005,237.24095,435.24005,224.04094,463.20007,208.08095Zm-256.32,40.08v-89.16c-25.68,7.44-54.6,22.08-54.6,45.12C152.28006,219.961,176.64006,239.04094,206.88007,248.16093Z" fill="#fff"/><path d="M494.40009,229.44093c-88.2,51.72-147,61.8-218.52,61.08-100.68-.84-158.04-41.16-158.04-89.16,0-43.2,52.56-84.48,160.08-84.48,72.24,0,159.36,19.44,205.92,65.28l38.76-39.48-13.2-62.64-57.12-16.68-10.44,11.64c-31.32-12.48-84.24-29.88-165.6-29.88-122.88,0-230.64,71.04-230.64,156.84,0,89.76,93.84,160.08,226.92,160.08,135.12,0,214.32-50.88,260.04-74.88Z" fill="#af1e2d"/></svg>