<?xml version="1.0" encoding="UTF-8" standalone="no"?>
<svg xmlns:rdf="http://www.w3.org/1999/02/22-rdf-syntax-ns#" xmlns="http://www.w3.org/2000/svg" height="181.99866" width="212.78148" version="1.1" xmlns:cc="http://creativecommons.org/ns#" xmlns:dc="http://purl.org/dc/elements/1.1/" viewBox="0 0 212.78148 181.99866"><path d="M42.40211,141.0283l.11013.16521C42.51224,141.13845,42.45719,141.08338,42.40211,141.0283Zm1.43178,2.14765a.17059.17059,0,0,0,.05505.11014ZM204.68656,95.212l8.09492-14.42772h-5.727l-4.075,7.26893C199.95073,53.74605,176.602,25.16594,145.10334,14.1524h.055l.05508-.22029,5.45168-9.6919h-4.35033l-4.846,8.75576A86.30439,86.30439,0,0,0,116.358,9.30645c-47.68861,0-86.95186,38.6575-86.95186,86.3461A85.33063,85.33063,0,0,0,41.7413,139.927H12.00475l-4.84594,8.5355H47.63354A87.1561,87.1561,0,0,0,116.358,181.99866c47.6886,0,87.00693-38.65751,87.00693-86.34611,0-.16521-.05506-.3304-.05506-.44055Z" fill="#c8102e"/><path d="M38.10685,95.65255c0,42.84266,35.40851,77.53529,78.25115,77.53529s78.30624-34.69263,78.30624-77.53529S159.20065,18.11728,116.358,18.11728,38.10685,52.80991,38.10685,95.65255Z" fill="#fff"/><path d="M179.851,92.789H161.128c-4.73582,18.77808,14.86827,14.70307,7.48921,27.91931-1.81725,3.13885-7.04867,3.13885-7.04867,3.13885H140.03709l-8.976,16.07977h35.24332c7.70947,0,14.9784-2.478,19.38382-10.29766C197.41761,108.5384,179.025,105.785,179.851,92.789Zm20.59532-19.21862h-16.1899a24.19387,24.19387,0,0,0-14.70307,5.56184l3.13885-5.56184H109.97015l-9.41657,16.90579H201.65783l5.39663-9.69193,4.075-7.21386ZM135.68675,92.789,109.30933,139.927h16.90578L152.59253,92.789ZM98.79141,123.8472l5.7821-10.40778h14.70307l8.976-16.07976h-14.648l2.53311-4.57062H99.232L72.85454,139.927h31.60884l8.976-16.07977Z" fill="#012169"/><path d="M57.10518,71.3677l5.23143-6.498.3304,6.498h6.22265l10.573-12.33516L72.5792,71.3677h6.60812l8.86589-15.91455H75.663L69.49541,62.667l-.44055-7.21386H62.88729l-6.00238,5.12129-.11014-5.12129h-5.727l.33041,15.91455Zm117.0188,0,5.28651-9.52671h-5.39664l-3.63447,6.498H168.397l5.50677-9.85711h7.37906l1.7071-3.02872H169.00269L160.1368,71.3677Zm-15.474,0,1.7071-3.02872H154.575l1.92738-3.46927h5.78211l1.7071-3.02872h-5.78211l1.87229-3.35912h5.78211l1.652-3.02872H155.1807L146.3148,71.3677ZM143.45129,58.48187h1.98244l-3.4142,6.1125h-1.98244ZM129.68437,71.3677h6.60812l2.0375-3.7446h8.59056L153.36347,56.114c.22028-.38547.05507-.66081-.3304-.66081h-14.4828Zm-8.42535,0h6.60812l8.8659-15.91455h-6.60813Zm-33.86663,0,3.35914-6.05745.826,6.05745h6.60814l8.86588-15.91455h-6.60812L97.0843,61.51058l-.826-6.05743H89.65017L80.78428,71.3677ZM96.864,92.789h-9.1963L73.07481,118.94617c-2.97366,5.2865-7.1588,4.73582-7.1588,4.73582l-23.73417-3.249-9.52671-1.26657L22.743,117.78975a7.42927,7.42927,0,0,0-6.16758,2.423L0,139.927H65.4204s5.12129,0,9.14123-7.21386Zm1.32163-2.31284,13.877-24.89059.77094,5.78211h6.60812l8.921-15.91455h-6.60811l-3.4142,6.05743-.77095-5.78209,19.494-34.85785L146.3148,4.24021,148.73779,0h-9.25137l-6.11251,10.95847-4.51555,8.15-39.869,71.36769Z" fill="#012169"/><polygon points="63.163 97.36 74.507 108.098 92.183 76.379 90.421 77.26 74.066 106.501 62.777 95.818 45.871 95.818 41.907 92.679 41.025 93.23 46.312 97.36 63.163 97.36" fill="#012169"/><polygon points="40.585 91.688 41.907 92.679 45.871 95.818 62.777 95.818 74.066 106.501 90.421 77.26 91.798 74.782 67.403 86.787 48.625 86.787 40.585 91.688" fill="#c8102e"/></svg>